# xmcd CD database file
#
# Track frame offsets:
#	150
#	16800
#	41281
#	58769
#	80940
#	108017
#	131155
#	154735
#	180346
#	200814
#	226989
#	254198
#	285307
#	307851
#
# Disc length: 4439 seconds
#
# Revision: 0
# Processed by: cddbd v1.5.2PL0 Copyright (c) Steve Scherf et al.
# Submitted via: CDex 1.70beta2
#
DISCID=b911550e
DTITLE=James Hardway - A Positive Sweat
DYEAR=2000
DGENRE=Jazz
TTITLE0=Grow
TTITLE1=A Yen For The Sweeten
TTITLE2=Pulling Weeds
TTITLE3=Bossnova
TTITLE4=Sleep Tonight
TTITLE5=Way West
TTITLE6=Go On
TTITLE7=Our Cousin Frank
TTITLE8=Lament
TTITLE9=Livin' the Life
TTITLE10=Feriha
TTITLE11=Canter's Diner 4 AM
TTITLE12=Grow (Justice's Scratch The Surface Mix)
TTITLE13=Go On (Klute Remix)
EXTD=YEAR: 2000
EXTT0=
EXTT1=
EXTT2=
EXTT3=
EXTT4=
EXTT5=
EXTT6=
EXTT7=
EXTT8=
EXTT9=
EXTT10=
EXTT11=
EXTT12=
EXTT13=
PLAYORDER=
